<?xml version="1.0" standalone="no"?>
<!DOCTYPE svg PUBLIC "-//W3C//DTD SVG 20010904//EN"
 "http://www.w3.org/TR/2001/REC-SVG-20010904/DTD/svg10.dtd">
<svg version="1.0" xmlns="http://www.w3.org/2000/svg"
 width="500.000000pt" height="500.000000pt" viewBox="0 0 500.000000 500.000000"
 preserveAspectRatio="xMidYMid meet">

<g transform="translate(0.000000,500.000000) scale(0.100000,-0.100000)"
fill="#000000" stroke="none">
<path d="M2910 4860 c0 -13 7 -20 19 -20 48 0 49 -5 24 -111 -24 -101 -23
-119 2 -119 14 0 22 21 49 139 8 34 16 65 19 67 2 2 17 0 34 -5 25 -7 33 -6
38 6 3 9 4 18 1 20 -4 4 -162 43 -177 43 -5 0 -9 -9 -9 -20z"/>
<path d="M2165 4795 c-262 -35 -438 -88 -690 -210 -441 -213 -805 -581 -1031
-1040 -390 -795 -304 -1738 224 -2449 88 -118 273 -311 387 -403 295 -238 638
-396 1015 -465 98 -18 154 -22 370 -22 313 0 414 14 397 57 -4 12 -17 12 -89
-1 -126 -22 -473 -21 -617 1 -480 75 -895 289 -1238 640 -496 507 -721 1192
-627 1917 143 1110 1083 1951 2176 1950 114 0 212 -8 346 -26 44 -5 52 -4 52
9 0 24 -14 29 -129 43 -132 17 -414 16 -546 -1z"/>
<path d="M3195 4798 c-3 -7 -22 -60 -44 -118 -28 -75 -36 -107 -28 -112 23
-15 34 -7 45 30 21 65 24 67 78 46 27 -9 50 -18 51 -19 2 -1 -6 -24 -17 -52
-20 -52 -18 -63 9 -63 11 0 28 33 54 108 48 131 47 126 20 130 -13 2 -23 -2
-23 -8 0 -6 -7 -26 -15 -45 l-14 -35 -43 16 c-59 23 -60 25 -43 74 12 35 13
45 3 52 -18 11 -28 10 -33 -4z"/>
<path d="M3450 4570 c-46 -93 -52 -112 -40 -120 8 -5 17 -10 20 -10 12 0 113
218 106 229 -16 26 -35 5 -86 -99z"/>
<path d="M3593 4501 c-35 -54 -63 -103 -63 -109 0 -5 7 -12 15 -16 10 -3 29
19 65 76 l50 82 0 -117 c0 -108 2 -117 21 -127 11 -7 22 -10 24 -8 1 2 32 49
68 105 56 87 64 103 51 114 -18 15 -20 13 -78 -81 l-47 -75 2 113 c1 111 -6
142 -35 142 -6 0 -39 -45 -73 -99z"/>
<path d="M3866 4314 c-70 -85 -77 -97 -64 -110 13 -14 18 -11 46 20 46 53 62
48 56 -16 -3 -29 -7 -61 -9 -71 -4 -21 33 -45 39 -25 3 7 7 43 11 80 7 73 3
70 98 84 47 6 48 7 30 24 -16 17 -24 17 -90 6 -40 -7 -73 -11 -73 -10 0 2 16
22 36 44 30 33 34 43 24 55 -7 8 -15 15 -19 14 -3 0 -42 -43 -85 -95z"/>
<path d="M2980 4180 c-96 -26 -379 -102 -628 -169 l-452 -121 -265 0 c-293 0
-310 -3 -374 -63 -18 -18 -44 -55 -56 -83 -22 -48 -26 -51 -77 -62 -183 -42
-250 -77 -288 -153 -31 -60 -25 -122 29 -323 27 -99 86 -318 131 -486 45 -168
105 -388 133 -490 l52 -185 3 -384 c3 -349 5 -388 22 -420 36 -71 109 -124
187 -137 l39 -6 22 -86 c31 -120 56 -167 108 -203 78 -53 113 -51 394 24 455
122 654 176 805 218 l150 42 305 6 c290 6 307 7 346 28 50 27 109 93 124 139
9 27 19 36 48 44 187 51 218 62 251 88 47 37 81 104 81 160 0 25 -31 160 -69
301 -38 141 -106 393 -151 561 -45 168 -97 361 -116 429 l-34 125 0 369 c0
363 0 371 -22 415 -39 76 -96 115 -199 136 -23 5 -28 15 -49 93 -13 49 -31
104 -41 124 -36 73 -116 120 -199 118 -19 -1 -114 -23 -210 -49z m-635 -715
c79 -46 120 -150 95 -239 -45 -162 -255 -210 -367 -83 -94 107 -62 264 67 330
46 24 63 28 108 23 31 -3 71 -15 97 -31z m-576 -225 c137 -74 267 -231 316
-385 l26 -84 45 35 c124 94 270 138 446 132 111 -3 118 -4 158 -33 23 -16 49
-42 58 -58 l17 -27 -365 -365 -365 -365 20 -36 c29 -54 122 -145 181 -176 98
-53 247 -72 366 -47 126 26 262 131 330 254 37 66 58 76 107 51 47 -25 55 -49
32 -95 -54 -105 -195 -242 -303 -295 -121 -59 -301 -82 -430 -55 -193 40 -379
216 -460 435 -31 86 -32 297 -1 404 30 105 35 158 24 230 -23 140 -115 267
-253 347 -42 25 -80 54 -83 64 -13 39 22 99 58 99 10 0 45 -14 76 -30z m1007
-829 c51 -23 104 -75 130 -127 26 -53 26 -174 1 -225 -24 -48 -79 -103 -126
-125 -53 -26 -152 -30 -207 -9 -217 83 -226 388 -14 484 59 27 159 28 216 2z"/>
<path d="M2441 2799 c-172 -29 -327 -179 -376 -364 -14 -57 -21 -175 -9 -175
8 0 544 535 544 543 0 9 -92 7 -159 -4z"/>
<path d="M4073 4128 c-54 -48 -89 -87 -86 -95 9 -22 23 -15 94 48 l69 61 -15
-49 c-46 -149 -50 -172 -33 -190 16 -15 21 -13 73 33 146 127 138 119 121 133
-13 11 -25 5 -83 -47 -37 -33 -69 -60 -70 -58 -1 1 12 48 28 105 30 101 30
104 12 123 -18 18 -21 16 -110 -64z"/>
<path d="M4348 3907 l-26 -62 -72 -7 c-79 -7 -88 -11 -71 -32 9 -10 27 -13 71
-9 l60 6 -26 -58 c-23 -52 -24 -60 -10 -73 19 -19 16 -21 48 53 l25 60 71 10
c63 9 70 12 61 28 -8 14 -19 16 -65 11 -29 -4 -54 -4 -54 0 0 4 9 24 20 46 23
46 25 63 7 79 -11 8 -19 -2 -39 -52z"/>
<path d="M4440 3669 c-39 -16 -79 -60 -86 -94 -6 -36 16 -98 48 -132 l21 -22
51 26 c28 14 53 27 55 29 8 8 -33 84 -45 84 -20 0 -27 -19 -13 -37 11 -13 10
-17 -6 -29 -27 -20 -47 -14 -63 19 -19 39 -8 74 31 97 65 40 128 20 146 -46 5
-19 15 -30 29 -32 19 -3 20 -1 10 35 -25 92 -98 133 -178 102z"/>
<path d="M4574 3244 c-9 -4 -9 -15 0 -45 7 -22 15 -40 19 -40 25 -1 29 9 16
49 -12 42 -14 44 -35 36z"/>
<path d="M4755 2945 c-5 -2 -50 -9 -99 -15 l-88 -12 6 -60 c9 -74 14 -88 33
-88 13 0 15 10 10 54 l-5 54 76 11 c128 20 132 21 132 42 0 14 -7 19 -27 18
-16 0 -32 -2 -38 -4z"/>
<path d="M4675 2691 c-71 -5 -80 -8 -80 -26 0 -19 6 -20 100 -17 132 4 155 9
155 33 0 21 -9 21 -175 10z"/>
<path d="M4818 2523 l-3 -38 -107 4 -108 3 0 -26 c0 -14 3 -25 8 -25 4 1 51 1
104 0 l97 -1 3 -37 c2 -27 8 -39 21 -41 15 -3 17 6 17 87 0 50 0 94 1 99 0 4
-7 8 -15 10 -11 2 -16 -7 -18 -35z"/>
<path d="M4580 2281 c0 -20 9 -25 73 -36 l38 -6 -7 -47 c-3 -26 -8 -50 -11
-55 -2 -4 -29 -4 -59 -1 -50 6 -54 5 -54 -14 0 -17 10 -22 68 -31 187 -32 182
-32 182 0 0 13 -12 19 -50 24 l-51 7 7 36 c12 75 11 74 64 67 39 -5 48 -4 54
11 4 9 5 19 3 21 -5 4 -224 43 -244 43 -7 0 -13 -9 -13 -19z"/>
<path d="M4513 1938 c-21 -78 -21 -72 -1 -76 12 -2 20 8 29 40 7 24 14 45 15
46 2 2 19 -1 39 -8 30 -10 35 -15 28 -33 -11 -34 -9 -70 4 -74 8 -3 17 13 25
41 11 42 14 45 37 39 38 -9 41 -12 32 -36 -22 -59 -22 -77 -2 -77 15 0 23 13
35 54 9 30 16 60 16 68 0 9 -38 25 -112 46 -62 18 -116 32 -120 32 -4 0 -15
-28 -25 -62z"/>
<path d="M4396 1634 c-8 -20 -11 -16 41 -43 l42 -21 -19 -42 c-14 -32 -16 -44
-7 -50 20 -13 23 -10 42 32 10 22 20 40 22 40 9 0 63 -31 63 -36 0 -2 -9 -22
-20 -43 -19 -38 -18 -51 5 -51 11 0 72 116 64 124 -9 8 -209 106 -218 106 -5
0 -12 -7 -15 -16z"/>
<path d="M4270 1400 c-18 -28 -33 -58 -34 -67 -2 -31 21 -23 48 17 14 22 29
40 33 40 5 0 80 -46 160 -97 19 -13 23 -12 32 6 10 18 1 26 -94 85 -58 36
-107 66 -109 66 -2 0 -18 -23 -36 -50z"/>
<path d="M4143 1210 c-62 -38 -80 -112 -40 -170 46 -68 132 -89 185 -45 81 68
61 165 -45 219 -42 21 -61 20 -100 -4z m102 -50 c63 -39 69 -115 11 -142 -32
-14 -77 3 -111 44 -30 36 -32 67 -5 96 26 27 63 28 105 2z"/>
<path d="M3952 1010 c-38 -23 -66 -74 -58 -106 4 -13 18 -31 32 -40 24 -16 29
-16 81 0 48 15 57 16 70 4 19 -19 7 -45 -29 -64 -20 -10 -28 -20 -24 -30 3 -9
6 -18 6 -20 0 -11 61 29 79 52 27 34 26 54 -1 89 -19 24 -25 27 -62 20 -104
-17 -103 -17 -110 0 -9 24 9 50 44 65 33 14 37 22 17 38 -10 8 -21 6 -45 -8z"/>
<path d="M3759 845 c-54 -36 -66 -88 -28 -126 18 -18 28 -19 90 -13 l69 7 0
-27 c0 -20 -8 -30 -35 -43 -22 -11 -34 -23 -32 -33 6 -32 90 11 108 57 12 31
-11 78 -43 86 -12 4 -42 2 -67 -4 -36 -8 -47 -7 -60 6 -21 21 -6 44 43 69 30
14 35 21 25 32 -16 20 -29 18 -70 -11z"/>
<path d="M3417 629 c-48 -25 -56 -33 -47 -44 10 -12 18 -12 51 5 21 11 41 20
43 20 5 0 36 -54 36 -63 0 -2 -18 -12 -40 -23 -43 -20 -44 -22 -31 -42 7 -11
16 -10 49 7 l41 21 15 -28 c14 -28 14 -28 -29 -51 -28 -15 -42 -28 -38 -37 3
-8 9 -14 14 -14 9 0 109 48 118 57 8 7 -103 223 -114 223 -5 -1 -36 -14 -68
-31z"/>
<path d="M3247 554 c-3 -3 1 -24 9 -46 17 -50 17 -55 0 -61 -8 -3 -34 10 -58
28 -24 19 -51 35 -60 35 -34 0 -28 -20 17 -52 35 -25 44 -38 39 -53 -15 -52
-14 -62 6 -88 12 -15 31 -27 42 -27 36 0 129 33 125 44 -3 6 -22 59 -43 118
-27 76 -44 108 -55 108 -9 0 -18 -3 -22 -6z m51 -159 c22 -47 11 -65 -38 -65
-41 0 -46 59 -7 78 31 15 33 15 45 -13z"/>
<path d="M3007 472 c-11 -2 -16 -10 -13 -17 3 -8 8 -29 11 -48 6 -32 5 -35
-24 -40 -69 -14 -95 -91 -47 -136 22 -21 31 -23 78 -17 85 11 83 7 53 137 -15
63 -30 117 -34 120 -3 3 -14 4 -24 1z m24 -173 c9 -42 5 -49 -30 -49 -54 0
-68 53 -21 77 34 17 43 12 51 -28z"/>
</g>
</svg>
