<?xml version="1.0" encoding="UTF-8"?>
<svg version="1.1" xmlns="http://www.w3.org/2000/svg" width="2453" height="1095">
<path d="M0 0 C7.86883827 5.98659124 14.04438743 14.37202122 16.0390625 24.1640625 C17.96650421 28.01894592 20.81826717 28.41945365 24.75390625 29.8125 C32.33072319 32.66092742 36.51829413 37.80546437 40.3515625 44.7890625 C40.88217285 45.70179932 41.4127832 46.61453613 41.95947266 47.55493164 C44.17474763 52.83080628 43.40704691 58.33225356 43.0934391 63.92848396 C40.41428309 115.10307667 50.63394379 160.02115347 65.21072006 208.79904842 C68.73638143 220.60438078 72.13332804 232.4404538 75.36731529 244.32922363 C75.89812344 246.2725418 76.43481596 248.21426416 76.97794533 250.1541748 C81.14479889 265.06322773 84.28497001 278.85032739 77.0625 293.3828125 C71.25995377 303.68465928 64.35728208 309.3840301 53.3515625 313.7890625 C51.40047741 314.2578297 49.44201104 314.69722636 47.4765625 315.1015625 C43.1981641 316.14060211 41.55237212 317.2322646 39.2265625 320.9765625 C38.77410156 321.76804687 38.32164062 322.55953125 37.85546875 323.375 C33.6595236 330.11030935 27.43172063 334.53664674 20.00366211 337.09350586 C15.36688365 337.97659843 11.12970632 337.76711646 6.4375 337.484375 C-27.69192183 335.65943529 -57.51053566 342.32895427 -90.2734375 351.4765625 C-91.87536327 351.92372494 -91.87536327 351.92372494 -93.50965118 352.37992096 C-104.4051125 355.43022982 -115.27868663 358.55129822 -126.13525391 361.73706055 C-133.60983342 363.92728923 -141.10038414 366.05246433 -148.61083984 368.11645508 C-149.52735132 368.37020999 -150.4438628 368.6239649 -151.38814735 368.88540936 C-164.81945192 372.54779262 -176.94592723 373.17716805 -189.5859375 366.3515625 C-190.95251059 365.51738862 -192.30864987 364.66561093 -193.6484375 363.7890625 C-194.9478125 362.95375 -194.9478125 362.95375 -196.2734375 362.1015625 C-203.01091239 355.54138958 -207.12934952 347.8014518 -209.6484375 338.7890625 C-209.6484375 338.1290625 -209.6484375 337.4690625 -209.6484375 336.7890625 C-210.855 336.69625 -210.855 336.69625 -212.0859375 336.6015625 C-220.62796125 334.65338164 -226.63414491 329.86116867 -231.6484375 322.7890625 C-235.32451843 316.63246495 -236.83424739 311.77915198 -236.50463867 304.56787109 C-236.45452637 303.2880687 -236.40441406 302.0082663 -236.3527832 300.68968201 C-236.31189072 299.65606946 -236.31189072 299.65606946 -236.27017212 298.60157585 C-234.91416925 261.34567938 -237.50509397 227.14525367 -247.8359375 191.2265625 C-248.20674564 189.93623423 -248.20674564 189.93623423 -248.58504486 188.61983871 C-251.25068449 179.3866896 -254.02123057 170.18730126 -256.84667969 161.00195312 C-260.53525136 149.00519931 -263.83392695 136.91224383 -267.07046509 124.78616333 C-267.92757864 121.60054669 -268.80911812 118.42272816 -269.69799805 115.24584961 C-274.41686137 98.18990429 -277.09576425 83.92467515 -268.3984375 67.6171875 C-261.86840238 57.06418431 -251.9648417 52.21128103 -240.2734375 48.9765625 C-234.73221201 47.24942728 -232.8574734 45.05532362 -230.0546875 40.1015625 C-225.68659443 32.91847612 -218.54712807 29.032254 -210.6484375 26.7890625 C-207.29305797 26.49301713 -204.07546452 26.75909516 -200.7265625 27.05859375 C-167.23728587 28.85118307 -137.93229026 22.58935449 -105.7734375 13.6640625 C-104.74956436 13.37994633 -103.72569122 13.09583015 -102.67079163 12.8031044 C-91.11042886 9.58533103 -79.57751476 6.27603265 -68.05492401 2.92586613 C-60.43857278 0.71640274 -52.80014271 -1.3982065 -45.140625 -3.453125 C-44.11510529 -3.72923615 -43.08958557 -4.00534729 -42.0329895 -4.28982544 C-26.97847011 -8.30143828 -13.60174873 -8.7655714 0 0 Z " fill="#3E120B" transform="translate(2360.6484375,17.2109375)"/>
<path d="M0 0 C0 0.99 0 1.98 0 3 C-2.33238246 4.96283615 -4.64797397 6.73665037 -7.125 8.5 C-8.60126321 9.57805522 -10.0765049 10.65751052 -11.55078125 11.73828125 C-12.2979541 12.28307129 -13.04512695 12.82786133 -13.81494141 13.38916016 C-17.03042648 15.75963731 -20.17771829 18.2117224 -23.3125 20.6875 C-23.88814697 21.14189453 -24.46379395 21.59628906 -25.05688477 22.06445312 C-30.42231032 26.31447731 -35.73559479 30.62535342 -41 35 C-41.50885742 35.42249023 -42.01771484 35.84498047 -42.54199219 36.28027344 C-49.59475012 42.1497115 -56.46916858 48.17324218 -63.1953125 54.4140625 C-65.61983976 56.64949014 -68.08148088 58.82803516 -70.5625 61 C-75.7762661 65.67880313 -80.72696216 70.61759262 -85.6875 75.5625 C-86.49582275 76.36623047 -87.30414551 77.16996094 -88.13696289 77.99804688 C-92.37686061 82.24884183 -96.45639407 86.57473749 -100.37133789 91.1262207 C-102.95597124 94.09984699 -105.67180872 96.94708413 -108.375 99.8125 C-113.10196376 104.85910944 -117.57509143 110.03334148 -121.8984375 115.43359375 C-123.98001427 117.97559363 -126.1503838 120.39529335 -128.375 122.8125 C-132.89653512 127.78070323 -137.01152206 133.00803577 -141.125 138.3125 C-143.49012633 141.36074183 -145.90408792 144.36550736 -148.33447266 147.36181641 C-155.87472603 156.67566093 -162.95933503 166.30553076 -170 176 C-170.55864746 176.76779785 -171.11729492 177.5355957 -171.69287109 178.32666016 C-173.33930504 180.59105081 -174.98299412 182.85739662 -176.625 185.125 C-177.090271 185.76735596 -177.55554199 186.40971191 -178.03491211 187.0715332 C-179.69704708 189.37600382 -181.34932403 191.68730381 -183 194 C-183.41221802 194.5757074 -183.82443604 195.15141479 -184.24914551 195.74456787 C-191.70676425 206.17277288 -198.90327175 216.74941345 -205.92724609 227.47412109 C-207.49618388 229.86917453 -209.07000489 232.26096152 -210.64453125 234.65234375 C-216.07417146 242.91336428 -221.43618812 251.21439543 -226.71875 259.5703125 C-227.23441528 260.38579559 -227.75008057 261.20127869 -228.28137207 262.04147339 C-232.84713506 268.9414971 -232.84713506 268.9414971 -233 277 C-231.10358124 280.94476697 -228.71950949 284.53775848 -226.3125 288.1875 C-225.63276123 289.24469238 -224.95302246 290.30188477 -224.25268555 291.39111328 C-222.18266227 294.60354255 -220.0921911 297.80197948 -218 301 C-216.84212117 302.79452299 -215.68576128 304.59002739 -214.53125 306.38671875 C-189.43692455 345.34826713 -162.86821601 383.42270428 -133.43554688 419.24853516 C-132.16412789 420.79975281 -130.9016989 422.35832934 -129.640625 423.91796875 C-120.68489002 434.98189682 -111.31822444 445.69181788 -101.6328125 456.12109375 C-99.66513067 458.27269836 -97.75272286 460.44462093 -95.8527832 462.65429688 C-91.98074834 467.0840941 -87.88749964 471.25692158 -83.72265625 475.41015625 C-82.95247665 476.18129257 -82.18229706 476.95242889 -81.38877869 477.74693298 C-79.77058627 479.36580153 -78.15114788 480.98342551 -76.53051758 482.59985352 C-74.06932768 485.05568718 -71.61352191 487.51681365 -69.15820312 489.97851562 C-67.57584133 491.56021653 -65.99316933 493.14160717 -64.41015625 494.72265625 C-63.32384666 495.81200218 -63.32384666 495.81200218 -62.21559143 496.9233551 C-57.63655216 501.48170211 -52.90704598 505.79815722 -48 510 C-46.88209613 510.97313601 -45.7647893 511.9469589 -44.6484375 512.921875 C-33.44790725 522.62482718 -21.84916779 531.68707156 -9.9375 540.5 C-9.12772705 541.09989746 -8.3179541 541.69979492 -7.48364258 542.31787109 C-3.74768273 545.06360009 -0.04652318 547.72026863 4 550 C3.67 550.99 3.34 551.98 3 553 C-38.4094618 545.08348524 -81.3586117 518.02407478 -115 494 C-115.83112305 493.40832031 -116.66224609 492.81664062 -117.51855469 492.20703125 C-131.92954186 481.89802661 -145.80254853 470.92882838 -158.8671875 458.94921875 C-160.94289048 457.0521935 -163.05688684 455.2099197 -165.1875 453.375 C-168.34692294 450.62712514 -171.29364261 447.72819191 -174.2265625 444.7421875 C-176.04800415 442.95284173 -177.93714279 441.28711468 -179.875 439.625 C-186.5398793 433.86252216 -192.58860519 427.58102713 -198.3203125 420.8984375 C-199.98204576 419.02029247 -201.71125525 417.25694484 -203.5 415.5 C-206.43494813 412.60383973 -209.17728599 409.6007082 -211.8671875 406.4765625 C-213.54909757 404.52357535 -215.24274906 402.58331535 -216.9453125 400.6484375 C-222.76593236 394.01419202 -228.43703116 387.30849889 -233.84155273 380.33032227 C-236.73213856 376.59974603 -239.6843903 372.93030985 -242.68579102 369.28833008 C-252.00627518 357.96750187 -260.97526277 346.28236065 -269 334 C-273.084853 338.62950007 -275.84278523 343.84439056 -278.75 349.25 C-279.31726807 350.30227783 -279.88453613 351.35455566 -280.46899414 352.4387207 C-286.84951219 364.40813999 -292.69677422 376.62965937 -298.56105042 388.85766602 C-303.80407214 399.77710105 -309.14996398 410.64672751 -314.48330688 421.52224731 C-319.23479492 431.21175956 -323.9739276 440.90499988 -328.59765625 450.65625 C-329.2921308 452.11512185 -329.98670732 453.57394517 -330.68139648 455.03271484 C-331.94367065 457.68408655 -333.1925413 460.34119648 -334.43383789 463.00244141 C-334.98418701 464.15921387 -335.53453613 465.31598633 -336.1015625 466.5078125 C-336.56900879 467.50441895 -337.03645508 468.50102539 -337.51806641 469.52783203 C-339.18971983 472.31649143 -340.17385351 473.39851699 -343 475 C-345.76906972 475.27504796 -348.30748382 475.37973832 -351.07324219 475.34057617 C-352.28843788 475.34123329 -352.28843788 475.34123329 -353.52818298 475.34190369 C-356.20132695 475.33981654 -358.87384083 475.31648924 -361.546875 475.29296875 C-363.40203509 475.28737253 -365.25719961 475.28310255 -367.11236572 475.28010559 C-371.9918037 475.26865889 -376.87097318 475.23919317 -381.75030518 475.20599365 C-386.73063525 475.17528903 -391.71100877 475.16159941 -396.69140625 475.14648438 C-406.46105537 475.11432335 -416.23050535 475.06312905 -426 475 C-425.27561413 470.99021834 -424.14130593 468.05632544 -422.1484375 464.484375 C-421.55216553 463.41098877 -420.95589355 462.33760254 -420.34155273 461.23168945 C-419.69259033 460.08273193 -419.04362793 458.93377441 -418.375 457.75 C-417.696581 456.53937105 -417.01827879 455.32867666 -416.34008789 454.11791992 C-410.64708047 443.99365007 -404.69147982 434.03310017 -398.67578125 424.09765625 C-395.09816903 418.18326024 -391.59901062 412.22571497 -388.125 406.25 C-387.5575708 405.27434082 -386.9901416 404.29868164 -386.40551758 403.29345703 C-385.22594404 401.26488689 -384.0465036 399.23623935 -382.8671875 397.20751953 C-379.463888 391.36121347 -376.04555579 385.52372057 -372.625 379.6875 C-372.26895691 379.07997894 -371.91291382 378.47245789 -371.54608154 377.8465271 C-364.3522974 365.57529195 -357.1013045 353.33841164 -349.84179688 341.10595703 C-347.05555016 336.40730503 -344.27742494 331.70387032 -341.5 327 C-337.96606558 321.01518269 -334.42803657 315.03282488 -330.8828125 309.0546875 C-330.52930725 308.45851624 -330.175802 307.86234497 -329.81158447 307.24810791 C-328.0891594 304.34344747 -326.36625035 301.43907695 -324.64257812 298.53515625 C-323.38117621 296.4083889 -322.12168477 294.28048709 -320.86425781 292.15136719 C-319.5836896 289.98667697 -318.29619497 287.82607387 -317.00292969 285.66894531 C-316.37032227 284.60514648 -315.73771484 283.54134766 -315.0859375 282.4453125 C-314.51665527 281.49414551 -313.94737305 280.54297852 -313.36083984 279.56298828 C-312.14986852 277.28226044 -311.33168392 275.54738626 -311 273 C-313.15554786 266.69302663 -316.74057808 261.08866439 -320.125 255.375 C-320.734646 254.33811035 -321.34429199 253.3012207 -321.97241211 252.23291016 C-323.28880368 249.99419862 -324.60681394 247.75643828 -325.92626953 245.51953125 C-328.04048843 241.93413238 -330.14425071 238.34266431 -332.24609375 234.75 C-339.1560916 222.94116703 -346.08777438 211.14549783 -353.0559082 199.37084961 C-359.67471181 188.17975893 -366.23964316 176.95704449 -372.81054688 165.73779297 C-376.01983497 160.25849887 -379.23158201 154.78064642 -382.44317627 149.30270386 C-383.49916592 147.50142276 -384.55502407 145.70006466 -385.61083984 143.89868164 C-389.59692438 137.09796644 -393.58503623 130.29844644 -397.57511902 123.50007629 C-400.75191702 118.08658576 -403.92294048 112.66972685 -407.09326172 107.25244141 C-408.87044773 104.22098533 -410.6549578 101.19397227 -412.44140625 98.16796875 C-413.44031755 96.46627107 -414.4390317 94.76445764 -415.4375 93.0625 C-416.10144775 91.94560791 -416.10144775 91.94560791 -416.77880859 90.80615234 C-417.1805127 90.11859863 -417.5822168 89.43104492 -417.99609375 88.72265625 C-418.33825928 88.14265869 -418.6804248 87.56266113 -419.03295898 86.96508789 C-420.29840571 84.39362091 -421.11129479 81.72145132 -422 79 C-412.15042975 78.97673766 -402.30086614 78.95901451 -392.45127392 78.94818783 C-387.87676708 78.94298923 -383.30227916 78.93594703 -378.7277832 78.92456055 C-374.30574167 78.91362355 -369.88371823 78.90770044 -365.4616642 78.90512276 C-363.78214547 78.90328787 -362.10262762 78.89970515 -360.42311668 78.89426994 C-351.57004987 78.8667826 -342.804877 78.93271697 -334 80 C-333.58862793 80.96373535 -333.17725586 81.9274707 -332.75341797 82.92041016 C-317.20806188 119.29474331 -300.95252013 155.23124335 -281.8125 189.88671875 C-277.77236308 197.20320637 -273.88602134 204.60085836 -270 212 C-266.5864116 210.8621372 -266.11790377 210.15470371 -264.1015625 207.30859375 C-263.54621826 206.53644531 -262.99087402 205.76429688 -262.41870117 204.96875 C-261.82677979 204.1334375 -261.2348584 203.298125 -260.625 202.4375 C-254.49983735 193.95392181 -248.09624 185.78080449 -241.42382812 177.72363281 C-239.41159527 175.28769935 -237.4269225 172.82957525 -235.4375 170.375 C-227.45511201 160.64144828 -219.24017853 151.12759817 -210.6796875 141.8984375 C-208.96273967 140.04133067 -207.25834325 138.17249231 -205.5703125 136.2890625 C-199.51572643 129.55545743 -193.20594203 123.10019411 -186.8125 116.6875 C-185.96888916 115.83929688 -185.12527832 114.99109375 -184.25610352 114.1171875 C-179.88572314 109.75753462 -175.44867653 105.54535073 -170.7668457 101.52172852 C-168.35549505 99.4449082 -166.02495184 97.28432565 -163.6875 95.125 C-158.28275991 90.20757254 -152.71807326 85.54643381 -147 81 C-146.38334473 80.5054834 -145.76668945 80.0109668 -145.13134766 79.50146484 C-126.4017579 64.51507401 -106.81382863 50.92961249 -86 39 C-85.26539551 38.57557617 -84.53079102 38.15115234 -83.77392578 37.71386719 C-57.0852215 22.34855079 -29.21222801 9.76487735 0 0 Z " fill="#DC2C26" transform="translate(1989,253)"/>
<path d="M0 0 C1.35820289 -0.00435828 2.71640334 -0.0095451 4.07460022 -0.01548767 C7.73182519 -0.02877027 11.38894615 -0.02946836 15.0461905 -0.02692437 C18.11481149 -0.02584714 21.18341207 -0.03075719 24.25202864 -0.03552979 C31.5003917 -0.04658824 38.74870292 -0.04708335 45.99707031 -0.04101562 C53.43895091 -0.03498103 60.88064219 -0.04728218 68.32249051 -0.06858569 C74.74412153 -0.08628298 81.16569274 -0.09219025 87.58734721 -0.08894795 C91.4084153 -0.08714757 95.22934837 -0.08964508 99.05039406 -0.10366249 C102.64814251 -0.11636925 106.24559903 -0.11417754 109.84334373 -0.1012516 C111.76808837 -0.09781239 113.69284248 -0.10896881 115.61755371 -0.12081909 C129.95702896 -0.03567645 142.35469937 2.25614754 153.18041992 12.1574707 C160.16956117 19.58249388 164.22902892 28.1989192 164.26899719 38.37623596 C164.27973015 40.25382347 164.27973015 40.25382347 164.29067993 42.16934204 C164.29352004 43.55413793 164.29623179 44.9389341 164.29882812 46.32373047 C164.30509579 47.78428813 164.31174286 49.24484421 164.31874084 50.70539856 C164.33975387 55.50060929 164.35014312 60.29582023 164.36010742 65.09106445 C164.36415651 66.74509129 164.36827348 68.39911796 164.3724575 70.05314445 C164.39150596 77.82779208 164.40573569 85.60243025 164.41406947 93.37709671 C164.4238301 102.33378861 164.45012022 111.29023259 164.49057037 120.2468372 C164.52080231 127.1803678 164.53554518 134.11382763 164.53885049 141.04742283 C164.5411936 145.18322728 164.55005669 149.31876681 164.57531166 153.4545002 C164.59872069 157.35093858 164.60277466 161.24694003 164.59255028 165.14343071 C164.59205785 166.56594172 164.59829105 167.98847518 164.61210632 169.41091919 C164.72628034 181.87367713 162.35858611 192.5918893 154.12182617 202.2746582 C146.14452706 209.87566962 136.98450337 214.37905209 125.94432068 214.42182922 C124.67576736 214.42898453 123.40721405 214.43613983 122.10021973 214.44351196 C120.69653345 214.44635208 119.29284691 214.44906383 117.88916016 214.45166016 C116.40889833 214.45792772 114.92863807 214.46457478 113.44837952 214.47157288 C108.5882374 214.492587 103.72809508 214.50297519 98.86791992 214.51293945 C97.19160509 214.51698849 95.51529041 214.52110545 93.83897591 214.52528954 C85.95967679 214.54433816 78.080387 214.55856791 70.2010693 214.5669015 C61.12325781 214.57666247 52.04569091 214.60295342 42.96796554 214.6434024 C35.94101749 214.6736322 28.91413925 214.68837701 21.88712746 214.69168252 C17.69543316 214.69402586 13.50400022 214.70289196 9.31237602 214.72814369 C5.36340968 214.75154895 1.41487447 214.75560816 -2.53414345 214.74538231 C-3.97600495 214.74488979 -5.41788857 214.75112565 -6.85968399 214.76493835 C-18.22885019 214.86767861 -27.65564382 213.30134774 -36.87817383 206.2746582 C-37.70317383 205.7177832 -38.52817383 205.1609082 -39.37817383 204.5871582 C-47.6110159 196.97177929 -51.95273857 186.46987546 -52.3861084 175.3692627 C-52.40967285 172.7516622 -52.41236677 170.13979775 -52.39575195 167.52270508 C-52.40118452 166.07096153 -52.4083135 164.6192235 -52.41699219 163.16749573 C-52.43509401 159.25623644 -52.42821305 155.34540326 -52.41547585 151.43413734 C-52.40527943 147.32200683 -52.41475982 143.20991042 -52.42102051 139.09777832 C-52.42827772 132.19492102 -52.41876004 125.29223546 -52.3996582 118.3894043 C-52.3778931 110.43275612 -52.38494584 102.47651807 -52.40696383 94.51987982 C-52.42517299 87.66260718 -52.42764931 80.80545731 -52.41720915 73.94816828 C-52.4110044 69.86393172 -52.41005465 65.77988732 -52.4233551 61.69566345 C-52.43499381 57.85405926 -52.42674355 54.01297879 -52.40377808 50.17143059 C-52.39853341 48.76990054 -52.39993113 47.36832566 -52.40882874 45.96681404 C-52.48543776 32.66314864 -49.4964081 21.49186912 -40.28833008 11.55981445 C-28.80668392 0.94266871 -14.95341996 -0.02969463 0 0 Z " fill="#000000" transform="translate(1407.878173828125,332.725341796875)"/>
<path d="M0 0 C1.61114946 -0.00486675 3.22229285 -0.01231594 4.8334198 -0.02212524 C9.17447962 -0.04079951 13.51462621 -0.02221795 17.85561419 0.00453901 C22.41663117 0.02731991 26.97760816 0.01894155 31.53866577 0.01504517 C39.1930823 0.01328432 46.84714286 0.0353365 54.50146484 0.07226562 C63.33123344 0.11462383 72.16048164 0.12161132 80.99033129 0.10914171 C89.51307725 0.09772545 98.03564133 0.10907772 106.55836105 0.1314888 C110.17296106 0.1407395 113.78744908 0.14254656 117.40205765 0.13831711 C121.6622891 0.13453051 125.92199606 0.15091652 130.18210793 0.1824379 C131.73885108 0.19087155 133.29564772 0.19265998 134.85240364 0.1870575 C145.99201643 0.1530695 155.67475672 1.12320683 164.11865234 9.04931641 C172.91559652 18.78879032 172.95026723 29.32729787 172.94042969 41.89038086 C172.94642161 43.42049485 172.95322867 44.95060583 172.96078491 46.48071289 C172.97838423 50.61929182 172.98313771 54.75778795 172.98441648 58.89640069 C172.98584204 61.48690851 172.99011928 64.07739554 172.99541092 66.66789818 C173.01389085 75.71912335 173.02208405 84.77028979 173.02050781 93.8215332 C173.01930684 102.236492 173.04040561 110.65119414 173.07199514 119.06608802 C173.09821114 126.30968558 173.10887289 133.55319959 173.10759699 140.79684418 C173.10708894 145.11477492 173.11268499 149.43247734 173.13395309 153.75036049 C173.1534257 157.81430449 173.15339896 161.87780447 173.13891983 165.94176483 C173.13684179 167.42554822 173.14147217 168.90936007 173.15364075 170.39309502 C173.24330634 182.09222206 171.97966843 192.27330513 163.56787109 201.02587891 C153.6632896 209.90167495 143.10407067 210.04303071 130.39648438 210.01928711 C128.85489659 210.02363971 127.31331096 210.02882469 125.77172852 210.03477478 C121.60221773 210.04811738 117.43279786 210.04874873 113.2632699 210.04621148 C109.77440286 210.0451385 106.28555396 210.05003351 102.79669082 210.0548169 C94.56138673 210.0658958 86.32612825 210.06635867 78.09082031 210.06030273 C69.61339993 210.05426432 61.13614558 210.0665743 52.65875351 210.0878728 C45.36336881 210.10552331 38.06803678 210.11148471 30.77263153 210.10823506 C26.42292059 210.10642748 22.0733281 210.10900567 17.72363663 210.1229496 C13.63102403 210.13557954 9.5386691 210.13353535 5.44606018 210.12053871 C3.9505746 210.11818455 2.45507059 210.12086569 0.95960617 210.12916183 C-10.80895289 210.18970258 -21.13312334 209.43817432 -30.12744141 201.09619141 C-39.25024675 191.6455051 -39.94248143 180.69204249 -39.86767578 168.16650391 C-39.87310729 166.62609194 -39.88023569 165.08568517 -39.88891602 163.54528809 C-39.90703023 159.39230925 -39.90013157 155.23973136 -39.88739967 151.08674622 C-39.87720983 146.72237132 -39.88668186 142.35802872 -39.89294434 137.99365234 C-39.90020343 130.66709283 -39.89067887 123.34069506 -39.87158203 116.01416016 C-39.8498166 107.56673595 -39.85686921 99.11969803 -39.87888765 90.67228317 C-39.8970914 83.39463389 -39.89957576 76.11710029 -39.88913298 68.83943558 C-39.88292529 64.50369188 -39.88198678 60.16812923 -39.89527893 55.83239746 C-39.9069096 51.75442087 -39.8986815 47.67693803 -39.8757019 43.59901428 C-39.87045305 42.11040564 -39.87186232 40.6217548 -39.88075256 39.13316345 C-39.94264178 27.70937017 -38.80223072 17.06992288 -30.48935509 8.51784325 C-21.19842123 0.81665829 -11.58537193 -0.12377681 0 0 Z " fill="#CF2F3D" transform="translate(1961.35009765625,519.25537109375)"/>
<path d="M0 0 C1.65 0 3.3 0 5 0 C5 77.22 5 154.44 5 234 C11.6 234 18.2 234 25 234 C28.94724546 234.18426944 32.82383522 234.39395425 36.75 234.75 C37.73967773 234.83725342 38.72935547 234.92450684 39.74902344 235.0144043 C72.77833498 238.15422131 105.06577422 246.62896582 135 261 C135.79325684 261.37350586 136.58651367 261.74701172 137.40380859 262.13183594 C172.39802227 278.66204267 206.43624754 303.73506804 230.703125 334.15234375 C232.19901909 336.00694714 233.72917866 337.83458714 235.296875 339.62890625 C251.07535093 357.75352811 262.70947755 378.90974224 273.125 400.4375 C273.61121826 401.43958496 274.09743652 402.44166992 274.59838867 403.47412109 C275.04287354 404.40949707 275.4873584 405.34487305 275.9453125 406.30859375 C276.54110107 407.55854126 276.54110107 407.55854126 277.14892578 408.83374023 C278 411 278 411 278 414 C276.35 414.33 274.7 414.66 273 415 C272.61779297 414.19481934 272.23558594 413.38963867 271.84179688 412.56005859 C256.44569937 380.19768397 238.99702096 350.983421 214 325 C213.4519873 324.43007324 212.90397461 323.86014648 212.33935547 323.27294922 C204.95333221 315.63955705 197.41353607 308.50948265 189 302 C187.49373047 300.80310547 187.49373047 300.80310547 185.95703125 299.58203125 C172.46958785 288.92989836 158.17328303 280.04740973 143 272 C142.32855957 271.64164062 141.65711914 271.28328125 140.96533203 270.9140625 C98.36500526 248.34660037 52.59775137 241.18972706 5 239 C5 247.25 5 255.5 5 264 C8.073125 263.938125 11.14625 263.87625 14.3125 263.8125 C42.48453723 263.64561165 70.44148795 268.74218381 97 278 C97.98709961 278.33354492 97.98709961 278.33354492 98.99414062 278.67382812 C129.44880448 289.01051748 156.91960004 305.86151309 181 327 C181.85078125 327.73863281 182.7015625 328.47726562 183.578125 329.23828125 C194.29432669 338.69273661 204.2185385 348.71407837 213 360 C214.16402344 361.43859375 214.16402344 361.43859375 215.3515625 362.90625 C250 406.46428571 250 406.46428571 250 425 C248.35 425.33 246.7 425.66 245 426 C244.39865234 424.67162109 244.39865234 424.67162109 243.78515625 423.31640625 C234.28382367 402.52157357 223.24275837 382.95078684 209 365 C207.87851563 363.57107422 207.87851563 363.57107422 206.734375 362.11328125 C194.01452334 346.49346341 179.46135867 331.66792326 163 320 C162.38382813 319.55543457 161.76765625 319.11086914 161.1328125 318.65283203 C113.46739857 284.37536946 63.25052825 272.53033505 5 269 C5 325.1 5 381.2 5 439 C7.64 439 10.28 439 13 439 C13 465.4 13 491.8 13 519 C27.52 519 42.04 519 57 519 C57 524.94 57 530.88 57 537 C42.48 537 27.96 537 13 537 C13 597.06 13 657.12 13 719 C10.36 719 7.72 719 5 719 C5 735.83 5 752.66 5 770 C68.02707158 768.4321624 126.70138241 751.2501254 175.06640625 709.49609375 C178.60001794 706.48946543 182.24587383 703.72358173 186 701 C186.99 702.32 187.98 703.64 189 705 C152.40960156 744.20399833 96.40912339 767.52732521 44 774 C43.26507324 774.09643799 42.53014648 774.19287598 41.77294922 774.29223633 C34.14706385 775.18824246 26.54393875 775.11195248 18.875 775.0625 C17.52343917 775.05747139 16.17187652 775.05291091 14.8203125 775.04882812 C11.54685541 775.03713721 8.27342163 775.01920521 5 775 C5 783.25 5 791.5 5 800 C52.97549435 798.79458557 99.333514 790.97221054 142.06787109 768.03613281 C143.40503552 767.31905853 144.74685584 766.61062405 146.09228516 765.90917969 C166.08956535 755.47776598 184.34698119 742.36331382 200.7109375 726.84765625 C203.06619015 724.94657348 205.14666993 723.96287287 208 723 C208.66 724.32 209.32 725.64 210 727 C203.83470251 733.68226343 196.93457738 739.18143445 189.72998047 744.67578125 C188.17622626 745.86510708 186.63602439 747.0720885 185.09765625 748.28125 C132.75377487 788.80554526 70.37498391 805 5 805 C5 893.11 5 981.22 5 1072 C3.35 1072 1.7 1072 0 1072 C0 983.89 0 895.78 0 805 C-6.27 804.67 -12.54 804.34 -19 804 C-23.96305811 803.36050945 -28.83091121 802.67463945 -33.75 801.8125 C-35.03221436 801.59110352 -36.31442871 801.36970703 -37.63549805 801.14160156 C-83.56434012 792.94420788 -126.39932044 773.96016914 -163 745 C-163.98097656 744.23171875 -164.96195312 743.4634375 -165.97265625 742.671875 C-181.67813343 730.10749325 -196.66655789 715.90096668 -209 700 C-210.00624078 698.73416061 -211.01277109 697.46855135 -212.01953125 696.203125 C-244.4874283 655.01695116 -264.38005009 605.7002099 -270.8125 553.75 C-270.9986084 552.25170654 -270.9986084 552.25170654 -271.18847656 550.72314453 C-271.98366806 543.69426156 -272 537.16632712 -272 530 C-365.06 530 -458.12 530 -554 530 C-554 528.35 -554 526.7 -554 525 C-460.94 525 -367.88 525 -272 525 C-272 515.76 -272 506.52 -272 497 C-269.06431893 464.21822807 -261.18772824 433.1108694 -248 403 C-247.64035156 402.17612793 -247.28070313 401.35225586 -246.91015625 400.50341797 C-236.15777546 376.1677869 -221.5620184 353.94283429 -204 334 C-203.38769531 333.2884375 -202.77539062 332.576875 -202.14453125 331.84375 C-200.44870087 329.87803688 -198.72949577 327.93616507 -197 326 C-196.16855469 325.06414062 -195.33710938 324.12828125 -194.48046875 323.1640625 C-188.66272507 316.67464326 -182.61944604 310.68643807 -176 305 C-175.04867188 304.16082031 -174.09734375 303.32164062 -173.1171875 302.45703125 C-126.21144873 261.4510087 -62.59620436 235 0 235 C0 157.45 0 79.9 0 0 Z M-26.0625 241.5625 C-27.26495361 241.73885986 -28.46740723 241.91521973 -29.70629883 242.09692383 C-69.1998618 248.22678499 -107.75072115 262.67364553 -141 285 C-141.60763184 285.40637695 -142.21526367 285.81275391 -142.84130859 286.23144531 C-157.57207474 296.19083738 -171.18243906 307.69962376 -184 320 C-185.34191406 321.28003906 -185.34191406 321.28003906 -186.7109375 322.5859375 C-191.76049897 327.51120207 -196.33701022 332.65895154 -200.73046875 338.17578125 C-202.24074347 340.05517647 -203.7854172 341.90744896 -205.36328125 343.73046875 C-244.60933922 389.11067933 -267.4988738 452.90428926 -267.0625 512.6875 C-267.05798828 513.87794922 -267.05347656 515.06839844 -267.04882812 516.29492188 C-267.03717465 519.19663683 -267.01924471 522.09832546 -267 525 C-259.41 525 -251.82 525 -244 525 C-243.96261719 523.4015625 -243.92523438 521.803125 -243.88671875 520.15625 C-242.46294094 469.07282802 -229.72411798 416.83952245 -199 375 C-198.57283691 374.40735352 -198.14567383 373.81470703 -197.70556641 373.20410156 C-183.96446637 354.16620628 -168.59504095 336.4415915 -150 322 C-148.74566299 320.99402646 -147.49178805 319.98747659 -146.23828125 318.98046875 C-135.71978049 310.62886943 -124.6783735 303.61242328 -113 297 C-112.28376465 296.58766113 -111.5675293 296.17532227 -110.82958984 295.75048828 C-79.34862098 277.72419561 -42.98018013 268.08502976 -6.97265625 265.359375 C-3.10579409 265.16274849 -3.10579409 265.16274849 0 264 C0 256.08 0 248.16 0 240 C-8.86208734 239.84773046 -17.2974731 240.27588475 -26.0625 241.5625 Z M-52 277 C-52.84046875 277.21495117 -53.6809375 277.42990234 -54.546875 277.65136719 C-95.00035024 288.28948627 -131.94641944 310.08568241 -162 339 C-162.62696777 339.59973633 -163.25393555 340.19947266 -163.89990234 340.81738281 C-173.09670915 349.66038069 -181.44283513 358.72355772 -189 369 C-189.83556908 370.10574725 -190.67150577 371.2112168 -191.5078125 372.31640625 C-215.58894639 404.6065897 -230.85353518 443.33246305 -237 483 C-237.17571533 484.1152002 -237.17571533 484.1152002 -237.35498047 485.25292969 C-239.42120495 498.93974803 -239 511.99861711 -239 526 C-177.29 526 -115.58 526 -52 526 C-52 523.69 -52 521.38 -52 519 C-37.15 519 -22.3 519 -7 519 C-7 492.6 -7 466.2 -7 439 C-4.69 439 -2.38 439 0 439 C0 382.9 0 326.8 0 269 C-17.37619361 269 -35.23389577 272.70399309 -52 277 Z M-267 530 C-267 558.00093416 -261.19321545 585.60517427 -252 612 C-251.7844043 612.64308105 -251.56880859 613.28616211 -251.34667969 613.94873047 C-237.69847829 654.5474125 -212.90568171 690.14987549 -182.9375 720.3125 C-182.02758301 721.2317627 -181.11766602 722.15102539 -180.18017578 723.09814453 C-174.09437706 729.1554896 -167.75379353 734.70044206 -161 740 C-160.24372314 740.59530518 -159.48744629 741.19061035 -158.70825195 741.80395508 C-114.56758096 776.06038065 -56.52958296 800 0 800 C0 791.75 0 783.5 0 775 C-3.856875 774.62875 -7.71375 774.2575 -11.6875 773.875 C-64.28798029 768.22368207 -113.77797203 748.70513099 -154 714 C-155.13501953 713.03126953 -155.13501953 713.03126953 -156.29296875 712.04296875 C-169.44432767 700.52176153 -181.68094178 688.1272337 -192 674 C-192.85806152 672.84894983 -193.71613451 671.69790823 -194.57421875 670.546875 C-200.61177396 662.35724019 -205.99457302 653.85461724 -211 645 C-211.4021875 644.29278809 -211.804375 643.58557617 -212.21875 642.85693359 C-232.05917759 607.61692412 -240.18410439 569.86454578 -244 530 C-251.59 530 -259.18 530 -267 530 Z M-239 531 C-238.24576765 545.99801576 -238.24576765 545.99801576 -236.3125 560.75 C-236.13952393 561.75385742 -235.96654785 562.75771484 -235.78833008 563.79199219 C-233.87610948 574.39272491 -231.1668093 584.71027615 -228 595 C-227.74911621 595.82387207 -227.49823242 596.64774414 -227.23974609 597.49658203 C-216.80326702 631.1013735 -198.22205533 662.51228772 -174 688 C-172.78427491 689.3894001 -171.57537389 690.78481591 -170.375 692.1875 C-164.38483781 699.04136 -157.9441428 705.02751455 -150.83984375 710.71875 C-149.00096157 712.19592633 -147.17921177 713.6947954 -145.37890625 715.21875 C-112.0627267 743.33701149 -69.8778233 760.71246153 -27.125 767.8125 C-26.46193848 767.9244873 -25.79887695 768.03647461 -25.11572266 768.15185547 C-16.76784692 769.39736092 -8.47655454 769.5290803 0 770 C0 753.17 0 736.34 0 719 C-2.31 719 -4.62 719 -7 719 C-7 658.94 -7 598.88 -7 537 C-21.85 537 -36.7 537 -52 537 C-52 535.02 -52 533.04 -52 531 C-113.71 531 -175.42 531 -239 531 Z " fill="#000000" transform="translate(559,10)"/>
<path d="M0 0 C8.58 0 17.16 0 26 0 C26.33 63.36 26.66 126.72 27 192 C35.85104266 182.59576717 44.69790528 173.19180421 53.50390625 163.74609375 C57.1619657 159.82386978 60.83042206 155.91144507 64.5 152 C71.68001623 144.34576185 78.84226192 136.67506755 86 129 C87.15362236 127.76299895 88.30726822 126.5260198 89.4609375 125.2890625 C90.03215332 124.67369629 90.60336914 124.05833008 91.19189453 123.42431641 C92.35784004 122.18074991 93.53605907 120.94858069 94.72607422 119.72802734 C97.8585317 116.4844595 100.53654738 113.29332228 102.984375 109.5 C110.27120238 99.00181582 110.27120238 99.00181582 116.93286133 97.59051514 C127.85088217 96.15714542 139.07171746 97.06726189 150 98 C144.35355498 106.28835966 137.18536173 113.00210076 130.0625 120 C127.57080422 122.45489791 125.08237032 124.91303569 122.59765625 127.375 C122.00139435 127.96567261 121.40513245 128.55634521 120.790802 129.16491699 C117.29238901 132.65117093 113.97815253 136.22429421 110.78295898 139.9921875 C106.11925012 145.24404861 100.96870917 150.07779124 95.97021484 155.00927734 C89.03047514 161.82218349 89.03047514 161.82218349 82.4921875 169.015625 C79.66541025 172.32684693 76.64355353 175.40447154 73.5390625 178.453125 C72.81822479 179.16214966 72.81822479 179.16214966 72.08282471 179.88549805 C70.09027148 181.8415552 68.09478527 183.79441441 66.09033203 185.73828125 C64.60816254 187.17818445 63.13556064 188.62732911 61.6640625 190.078125 C60.79217285 190.92793945 59.9202832 191.77775391 59.02197266 192.65332031 C56.99362598 195.00739762 56.26403316 195.96737786 56 199 C57.18571826 200.90686933 57.18571826 200.90686933 59.08007812 202.63183594 C59.77830688 203.32645935 60.47653564 204.02108276 61.19592285 204.73675537 C61.96658081 205.47846985 62.73723877 206.22018433 63.53125 206.984375 C64.31512085 207.75879944 65.0989917 208.53322388 65.90661621 209.33111572 C68.4262656 211.81607727 70.96234055 214.28344498 73.5 216.75 C76.00569262 219.20552087 78.50784024 221.66456962 81.00769043 224.1260376 C82.56516278 225.65739222 84.12655336 227.18477569 85.69250488 228.7074585 C89.73590908 232.66024127 93.54360747 236.71309624 97.22937012 240.99957275 C100.4299427 244.61552472 103.87972797 247.98128414 107.3125 251.375 C108.08505127 252.14376465 108.85760254 252.9125293 109.65356445 253.70458984 C112.09994182 256.13885765 114.5495414 258.56984106 117 261 C120.23213688 264.20536178 123.46082535 267.41414073 126.6875 270.625 C127.78155151 271.706604 127.78155151 271.706604 128.89770508 272.81005859 C132.92914708 276.82241189 136.75967402 280.93894814 140.47244263 285.24758911 C142.29346428 287.33666166 144.2062237 289.3049273 146.18359375 291.24609375 C146.88291016 291.93767578 147.58222656 292.62925781 148.30273438 293.34179688 C149.00720703 294.03337891 149.71167969 294.72496094 150.4375 295.4375 C151.87593642 296.85058953 153.31226442 298.26582973 154.74609375 299.68359375 C155.37185303 300.29775146 155.9976123 300.91190918 156.64233398 301.54467773 C158 303 158 303 158 304 C122.32496117 306.42669198 122.32496117 306.42669198 114.60546875 301.1640625 C111.56203015 298.37927962 109.19563586 295.22993159 107.05371094 291.71337891 C105.67232998 289.46719458 103.98244324 287.61177321 102.1875 285.6875 C101.67574219 285.08292969 101.16398437 284.47835938 100.63671875 283.85546875 C97.96827135 280.83037922 95.05802725 278.05048634 92.1875 275.21875 C89.59803119 272.59228878 87.21163036 269.83023542 84.8125 267.03125 C82.7890712 264.76361428 80.66346653 262.6342305 78.5 260.5 C75.0928121 257.13885518 71.92541826 253.66298797 68.8125 250.03125 C66.7890712 247.76361428 64.66346653 245.6342305 62.5 243.5 C59.0928121 240.13885518 55.92541826 236.66298797 52.8125 233.03125 C50.07222917 229.96025683 47.12053098 227.11213124 44.19140625 224.22265625 C42.1852981 222.1879405 40.29886484 220.10414563 38.4375 217.9375 C34.81327981 213.78612051 30.8967245 209.8967245 27 206 C26.67 238.34 26.34 270.68 26 304 C17.42 304 8.84 304 0 304 C0 203.68 0 103.36 0 0 Z " fill="#000000" transform="translate(1196,437)"/>
<path d="M0 0 C8.91 0 17.82 0 27 0 C27.33 39.93 27.66 79.86 28 121 C30.31 118.03 32.62 115.06 35 112 C47.65341738 97.17284908 65.77515078 88.36389909 85 86 C89.7748279 85.71188471 94.52998326 85.67494746 99.3125 85.6875 C100.52873047 85.67138672 101.74496094 85.65527344 102.99804688 85.63867188 C121.44472145 85.62887545 138.61978033 90.55565366 152.375 103.1796875 C167.6172538 118.88538821 171.17729095 139.79219643 171.11352539 160.84179688 C171.11367142 162.11092926 171.11381744 163.38006165 171.1139679 164.68765259 C171.11425326 168.14576064 171.10839878 171.60383358 171.10139394 175.06193352 C171.0951169 178.68406875 171.09455317 182.3062049 171.09336853 185.92834473 C171.090268 192.77753409 171.08207191 199.62670738 171.07201904 206.47588968 C171.06081812 214.2776174 171.05533745 222.07934591 171.05032361 229.88107967 C171.03988816 245.92073066 171.02155866 261.96035952 171 278 C162.09 278 153.18 278 144 278 C143.98018066 274.64086426 143.96036133 271.28172852 143.93994141 267.82080078 C143.8727163 256.66092206 143.79517776 245.50113039 143.71247292 234.34135628 C143.66262837 227.58224814 143.61618572 220.82315046 143.578125 214.06396484 C143.54096359 207.52807975 143.49452441 200.99231767 143.44193649 194.45653915 C143.42355505 191.97620703 143.40838876 189.49584871 143.39665604 187.01547623 C143.84064296 150.77146442 143.84064296 150.77146442 127.9375 119.25 C117.01342821 109.02680892 101.90868995 107.33375369 87.671875 107.6875 C70.00274687 108.56437981 54.92315822 116.07460529 43 129 C30.58327285 144.91888096 27.91177111 162.52013863 27.79467773 182.07104492 C27.77982834 183.63890244 27.77982834 183.63890244 27.76467896 185.23843384 C27.73339162 188.65242338 27.70843777 192.06642678 27.68359375 195.48046875 C27.66299584 197.86371701 27.64199867 200.24696185 27.62062073 202.63020325 C27.5656929 208.87225558 27.51615566 215.11433927 27.46777344 221.35644531 C27.41734321 227.73830929 27.36177 234.12012831 27.30664062 240.50195312 C27.19941782 253.00126493 27.09837054 265.50061539 27 278 C18.09 278 9.18 278 0 278 C0 186.26 0 94.52 0 0 Z " fill="#000000" transform="translate(663,452)"/>
<path d="M0 0 C1.27278809 0.00757324 2.54557617 0.01514648 3.85693359 0.02294922 C21.60171778 0.33410184 35.98880911 5.10080916 48.98828125 17.5625 C66.24156717 36.37497176 69.80903393 61.63916607 69.73852539 86.24072266 C69.73824272 87.60178627 69.73840282 88.96285004 69.7389679 90.32391357 C69.73925274 93.98850741 69.7334069 97.65306797 69.72639394 101.31765413 C69.72010802 105.15865691 69.71955248 108.9996606 69.71836853 112.84066772 C69.71527058 120.10061528 69.70707805 127.36054764 69.69701904 134.62048852 C69.68581001 142.89141948 69.68033542 151.16235119 69.67532361 159.43328786 C69.66489403 176.43470219 69.64656781 193.4360956 69.625 210.4375 C60.715 210.4375 51.805 210.4375 42.625 210.4375 C42.60312622 204.4821521 42.60312622 204.4821521 42.58081055 198.40649414 C42.53030851 185.23892251 42.46383308 172.07147126 42.38928509 158.90401554 C42.3445041 150.92633964 42.30504976 142.94870662 42.27856445 134.97094727 C42.25543984 128.0096892 42.22188368 121.04856889 42.17629844 114.0874204 C42.15255903 110.40864842 42.13370513 106.7300112 42.12738609 103.05116463 C42.3470486 66.14065418 42.3470486 66.14065418 24.90234375 34.62890625 C14.06498642 24.72963452 1.2345447 23.77719363 -12.80859375 24.06640625 C-27.37253041 24.76063292 -40.87325756 31.82887855 -50.79296875 42.47265625 C-64.50223598 59.49922765 -68.4703578 78.3937589 -68.58032227 99.75024414 C-68.59517166 101.55174927 -68.59517166 101.55174927 -68.61032104 103.38964844 C-68.63634103 106.65552801 -68.65827118 109.92140316 -68.67832303 113.18732381 C-68.70032816 116.61062075 -68.72764514 120.03387538 -68.75437927 123.45713806 C-68.80411121 129.92731231 -68.8491216 136.39751029 -68.89240164 142.86773056 C-68.94194166 150.23904824 -68.99679711 157.61032344 -69.05208123 164.98159993 C-69.16560158 180.13352829 -69.27180326 195.28549714 -69.375 210.4375 C-77.955 210.4375 -86.535 210.4375 -95.375 210.4375 C-95.375 142.4575 -95.375 74.4775 -95.375 4.4375 C-86.795 4.4375 -78.215 4.4375 -69.375 4.4375 C-69.045 15.6575 -68.715 26.8775 -68.375 38.4375 C-66.065 34.8075 -63.755 31.1775 -61.375 27.4375 C-45.40179244 8.56007288 -24.58115696 -0.20541357 0 0 Z " fill="#000000" transform="translate(1061.375,523.5625)"/>
<path d="M0 0 C2.09441503 1.61410456 4.13475819 3.25654012 6.12890625 4.9921875 C4.54223047 8.89504517 1.99540144 11.32739732 -0.99609375 14.2421875 C-2.36121094 15.58023438 -2.36121094 15.58023438 -3.75390625 16.9453125 C-4.80191406 17.95851563 -4.80191406 17.95851563 -5.87109375 18.9921875 C-6.3815625 18.62867188 -6.89203125 18.26515625 -7.41796875 17.890625 C-23.2839856 6.91944314 -38.45047008 3.30893432 -57.59765625 6.640625 C-71.3361862 10.88180707 -82.24557722 19.95172262 -89.18359375 32.4921875 C-98.35618431 52.54924485 -98.45917932 76.51150957 -91.8046875 97.328125 C-89.20356874 104.14425798 -85.7061608 109.5592922 -80.87109375 114.9921875 C-80.34902344 115.61867188 -79.82695313 116.24515625 -79.2890625 116.890625 C-72.31086925 124.66681115 -61.81944571 129.26563377 -51.4753418 130.21118164 C-48.87400468 130.33179344 -46.28769642 130.3717015 -43.68359375 130.3671875 C-42.76247803 130.36630127 -41.8413623 130.36541504 -40.89233398 130.36450195 C-30.73114818 130.18914027 -22.97949509 127.54638817 -13.87109375 122.9921875 C-13.54109375 109.4621875 -13.21109375 95.9321875 -12.87109375 81.9921875 C-24.42109375 81.9921875 -35.97109375 81.9921875 -47.87109375 81.9921875 C-47.87109375 76.3821875 -47.87109375 70.7721875 -47.87109375 64.9921875 C-29.39109375 64.9921875 -10.91109375 64.9921875 8.12890625 64.9921875 C8.52999434 81.43234279 8.52999434 81.43234279 8.6171875 88.46679688 C8.67686438 93.25853871 8.74726951 98.04836133 8.88330078 102.83862305 C8.99235329 106.70324533 9.05182389 110.56580978 9.07767868 114.43185234 C9.09608902 115.90288131 9.13204709 117.37380338 9.18620682 118.84395027 C9.5931493 130.35313922 9.5931493 130.35313922 5.94392395 134.4380188 C3.40564998 136.24254871 0.9424185 137.66697395 -1.87109375 138.9921875 C-2.88300781 139.54390625 -3.89492187 140.095625 -4.9375 140.6640625 C-7.57198769 141.80196329 -10.20734024 142.92432182 -12.87109375 143.9921875 C-13.598125 144.28996094 -14.32515625 144.58773437 -15.07421875 144.89453125 C-34.21331895 152.01852966 -58.4069008 150.84447356 -77.24609375 143.3046875 C-93.6214979 135.67907024 -104.81980467 123.85191936 -112.87109375 107.9921875 C-113.29261719 107.17621094 -113.71414063 106.36023438 -114.1484375 105.51953125 C-123.8999841 85.24367398 -123.69731663 58.31446328 -116.70556641 37.28222656 C-109.63571495 17.8804692 -97.20616622 3.18583119 -78.67626953 -6.17089844 C-73.92583206 -8.37329222 -68.94332395 -9.76888807 -63.87109375 -11.0078125 C-62.87275513 -11.27053955 -62.87275513 -11.27053955 -61.85424805 -11.53857422 C-40.68887119 -16.78139544 -17.8072836 -12.45298472 0 0 Z " fill="#FEFCFB" transform="translate(2081.87109375,555.0078125)"/>
<path d="M0 0 C5.62848665 5.62848665 5.62848665 5.62848665 7.83984375 8.5390625 C8.33790527 9.19173096 8.8359668 9.84439941 9.34912109 10.5168457 C9.87328613 11.21253662 10.39745117 11.90822754 10.9375 12.625 C11.50033691 13.36645264 12.06317383 14.10790527 12.64306641 14.87182617 C17.36069236 21.10615779 22.00155777 27.39660897 26.62670898 33.69970703 C30.88067589 39.49476241 35.17870118 45.25501097 39.5 51 C44.35209758 57.45072224 49.16426274 63.92823173 53.9375 70.4375 C58.96367134 77.29013332 64.08246852 84.06591637 69.25 90.8125 C74.56371675 97.7509257 79.76701869 104.74219809 84.7890625 111.89453125 C87.45913558 115.64489891 90.2377478 119.31699706 93 123 C93 84.39 93 45.78 93 6 C97.95 6 102.9 6 108 6 C108 60.45 108 114.9 108 171 C102.37641723 165.37641723 102.37641723 165.37641723 99.94140625 162.0234375 C99.39806641 161.28029297 98.85472656 160.53714844 98.29492188 159.77148438 C97.43737305 158.58522461 97.43737305 158.58522461 96.5625 157.375 C95.3139169 155.66397871 94.06521569 153.9530436 92.81640625 152.2421875 C92.18234863 151.37045898 91.54829102 150.49873047 90.89501953 149.60058594 C87.94679986 145.55466531 84.97284817 141.52783803 82 137.5 C80.83319435 135.91676909 79.66652805 134.33343546 78.5 132.75 C77.9225 131.96625 77.345 131.1825 76.75 130.375 C71.5 123.25 71.5 123.25 69.75024414 120.87524414 C68.58287469 119.29101519 67.41539412 117.70686812 66.24780273 116.12280273 C63.34097443 112.1788343 60.4360552 108.23348838 57.53515625 104.28515625 C51.56256592 96.16028112 45.55901719 88.06067778 39.5 80 C34.34821148 73.14467235 29.21960393 66.27295703 24.125 59.375 C23.22297852 58.15683594 23.22297852 58.15683594 22.30273438 56.9140625 C21.75166016 56.16640625 21.20058594 55.41875 20.6328125 54.6484375 C20.14699707 53.99020996 19.66118164 53.33198242 19.16064453 52.65380859 C18 51 18 51 17 49 C16.67 87.61 16.34 126.22 16 166 C10.72 166 5.44 166 0 166 C0 111.22 0 56.44 0 0 Z " fill="#FBFBFB" transform="translate(1410,355)"/>
<path d="M0 0 C0.9090509 -0.01283524 1.81810181 -0.02567047 2.75469971 -0.03889465 C4.2233548 -0.04997505 4.2233548 -0.04997505 5.72167969 -0.0612793 C6.74348328 -0.06935104 7.76528687 -0.07742279 8.8180542 -0.08573914 C10.98675854 -0.09957074 13.15548457 -0.11029702 15.32421875 -0.11816406 C17.51569108 -0.1296082 19.70713723 -0.14993762 21.8984375 -0.1796875 C54.5825837 -0.62303868 54.5825837 -0.62303868 65.39355469 8.17700195 C69.18698979 12.83730224 69.97527963 17.32431928 69.85449219 23.27075195 C69.85357574 24.02110718 69.8526593 24.7714624 69.85171509 25.54455566 C69.84570925 27.12115863 69.83005469 28.69775182 69.80517578 30.27416992 C69.76865226 32.6705998 69.76415721 35.06547873 69.76464844 37.4621582 C69.7548153 39.00253598 69.74315744 40.54290341 69.72949219 42.08325195 C69.72726654 42.79074585 69.72504089 43.49823975 69.7227478 44.22717285 C69.61650251 49.86932639 68.67832665 54.83089663 65.95605469 59.80200195 C59.26225358 66.00601273 50.43176772 68.30998281 41.50170898 68.29052734 C40.34088303 68.29045181 39.18005707 68.29037628 37.98405457 68.29029846 C36.74118179 68.28513718 35.49830902 68.27997589 34.21777344 68.2746582 C32.93747757 68.27324326 31.6571817 68.27182831 30.33808899 68.27037048 C26.94658429 68.26656592 23.55512292 68.25675339 20.16363525 68.2456665 C16.69796332 68.23540793 13.23228433 68.23086336 9.76660156 68.22583008 C2.97556721 68.2148095 -3.81543512 68.19807765 -10.60644531 68.17700195 C-10.51943359 69.96557617 -10.51943359 69.96557617 -10.43066406 71.7902832 C-10.38376684 73.35665036 -10.33826663 74.92305979 -10.29394531 76.48950195 C-10.25205078 77.27518555 -10.21015625 78.06086914 -10.16699219 78.87036133 C-10.12004425 81.07691431 -10.13268776 83.02011272 -10.60644531 85.17700195 C-14.86976642 88.78980095 -18.2618918 88.61508011 -23.60644531 88.17700195 C-26.44992874 85.33351853 -25.87280176 83.41967756 -25.89697266 79.43579102 C-25.90368988 78.74287964 -25.9104071 78.04996826 -25.91732788 77.33605957 C-25.93637269 75.0381763 -25.94023584 72.74058431 -25.94238281 70.44262695 C-25.94880829 68.84560017 -25.95553646 67.24857458 -25.96255493 65.65155029 C-25.97454533 62.29900384 -25.97823416 58.94656053 -25.97705078 55.59399414 C-25.97684795 51.3054114 -26.00410401 47.01749405 -26.0385952 42.72906876 C-26.06087926 39.42784615 -26.0648878 36.12678297 -26.06383133 32.82549286 C-26.0661868 31.24509141 -26.07500737 29.66468552 -26.09049606 28.08435822 C-26.11017944 25.86770247 -26.10430945 23.65247164 -26.09228516 21.43579102 C-26.09513519 20.17607483 -26.09798523 18.91635864 -26.10092163 17.61846924 C-25.37188304 12.54449025 -22.96992323 9.50260549 -19.35644531 5.98950195 C-13.57901579 2.18165068 -6.91487833 0.08556284 0 0 Z " fill="#FEFDFD" transform="translate(2325.6064453125,175.822998046875)"/>
<path d="M0 0 C8.58 0 17.16 0 26 0 C26 67.98 26 135.96 26 206 C17.42 206 8.84 206 0 206 C0 138.02 0 70.04 0 0 Z " fill="#000000" transform="translate(885,522)"/>
<path d="M0 0 C1.00580612 -0.00428513 2.01161224 -0.00857025 3.04789734 -0.01298523 C5.16660818 -0.01870296 7.28533865 -0.01924776 9.40405273 -0.01489258 C12.61672074 -0.01173838 15.82846154 -0.03520468 19.04101562 -0.06054688 C21.11067594 -0.06282095 23.18033869 -0.06352286 25.25 -0.0625 C26.19619705 -0.07170975 27.1423941 -0.08091949 28.11726379 -0.09040833 C37.63368099 -0.0255781 48.00226078 1.72895706 55.32421875 8.30078125 C60.76240207 14.00942485 59.84908347 20.53388216 59.69921875 28.05078125 C59.69792969 29.29472656 59.69664062 30.53867188 59.6953125 31.8203125 C59.60521978 41.01978022 59.60521978 41.01978022 57.32421875 43.30078125 C54.85472803 43.4885139 52.49841892 43.55274428 50.02880859 43.52783203 C49.27749161 43.52812408 48.52617462 43.52841614 47.75209045 43.52871704 C45.26299583 43.52732112 42.77419872 43.51174783 40.28515625 43.49609375 C38.56165734 43.49236455 36.83815632 43.48951714 35.11465454 43.48751831 C30.57391528 43.47987455 26.03330355 43.46021973 21.49261475 43.43811035 C16.86097947 43.41766789 12.22932362 43.40852002 7.59765625 43.3984375 C-1.49354568 43.3769745 -10.58465287 43.34282964 -19.67578125 43.30078125 C-18.2912074 48.68245065 -17.56182271 51.36915637 -12.67578125 54.30078125 C-6.24104853 56.56318409 -0.12137471 56.67143189 6.6484375 56.77929688 C7.46441406 56.80572266 8.28039063 56.83214844 9.12109375 56.859375 C9.85682617 56.87282959 10.59255859 56.88628418 11.35058594 56.90014648 C13.8918974 57.41601637 14.78543577 58.23665467 16.32421875 60.30078125 C16.9790525 66.41256295 16.9790525 66.41256295 15.07543945 68.99462891 C12.87641744 70.63477497 11.65554153 70.68731669 8.9296875 70.69921875 C8.06311523 70.70550293 7.19654297 70.71178711 6.30371094 70.71826172 C5.38235352 70.70424316 4.46099609 70.69022461 3.51171875 70.67578125 C2.56844727 70.66562988 1.62517578 70.65547852 0.65332031 70.64501953 C-10.77009187 70.39380573 -21.85861942 69.32167957 -30.67578125 61.30078125 C-36.87203025 54.29105821 -35.89331757 46.10167232 -35.91601562 37.28442383 C-35.92570462 35.00629937 -35.95674282 32.72908425 -35.98828125 30.45117188 C-35.994814 28.98828656 -36.0000634 27.52539485 -36.00390625 26.0625 C-36.01625305 25.3893425 -36.02859985 24.716185 -36.0413208 24.02262878 C-36.01534435 18.42030132 -34.73479164 13.76751647 -31.09765625 9.41015625 C-21.75435295 1.81326478 -11.71864708 -0.0112158 0 0 Z " fill="#FDFDFD" transform="translate(2171.67578125,174.69921875)"/>
<path d="M0 0 C1.41022392 2.66063525 2.43076587 5.1788941 3.20497131 8.08657837 C3.42189636 8.89277115 3.63882141 9.69896393 3.86231995 10.52958679 C4.09345993 11.40621475 4.32459991 12.28284271 4.56274414 13.18603516 C4.81192596 14.11711594 5.06110779 15.04819672 5.31784058 16.00749207 C6.14442529 19.10025909 6.96480315 22.19463724 7.78515625 25.2890625 C8.36571379 27.4664378 8.94664788 29.64371272 9.52793884 31.82089233 C11.06545748 37.58377473 12.59770203 43.348047 14.12890625 49.11260986 C15.95198104 55.9714282 17.78184777 62.82843755 19.6107235 69.68571091 C21.09244096 75.24351614 22.57098565 80.802129 24.04263306 86.36260986 C27.56346684 99.66681236 27.56346684 99.66681236 31.19435596 112.94127083 C32.0637093 116.06773153 32.92228989 119.19710465 33.78027153 122.32670212 C34.1648301 123.71584841 34.55515817 125.10341466 34.95213509 126.48906326 C38.73659463 139.69905304 39.96703823 152.00571701 33.7109375 164.59375 C27.33508158 175.91345142 19.07778335 182.25914827 6.55859375 186.0390625 C3.71465599 186.75760167 0.87484971 187.41891336 -2 188 C-1.83826325 187.16738836 -1.67652651 186.33477673 -1.50988865 185.47693443 C-0.96362763 181.75197652 -0.84709818 178.1232579 -0.84178162 174.36904907 C-0.83684364 173.62071599 -0.83190566 172.87238292 -0.82681805 172.10137308 C-0.81151368 169.60485632 -0.80310168 167.10836514 -0.79467773 164.61181641 C-0.78509365 162.81784848 -0.77508326 161.02388279 -0.76467896 159.22991943 C-0.73768127 154.36680778 -0.71664393 149.50368647 -0.69667697 144.64054155 C-0.67478569 139.55562113 -0.64741239 134.47073028 -0.62062073 129.38583374 C-0.5707363 119.75998984 -0.52578172 110.13412949 -0.48259836 100.50825346 C-0.43318965 89.54820657 -0.378285 78.58818937 -0.32291877 67.62817121 C-0.20916398 45.08547518 -0.1023108 22.54275066 0 0 Z " fill="#EC1E23" transform="translate(2404,146)"/>
<path d="M0 0 C-0.16173675 0.83417765 -0.32347349 1.66835529 -0.49011135 2.52781105 C-1.03323861 6.22634497 -1.15287936 9.8274294 -1.15821838 13.55502319 C-1.16315636 14.29518917 -1.16809434 15.03535514 -1.17318195 15.79795039 C-1.18848438 18.26682805 -1.19689779 20.73567986 -1.20532227 23.20458984 C-1.2149065 24.97885361 -1.2249169 26.75311512 -1.23532104 28.52737427 C-1.26231707 33.33676847 -1.2833553 38.14617243 -1.30332303 42.95560026 C-1.32521534 47.98446645 -1.35258814 53.01330273 -1.37937927 58.04214478 C-1.42926231 67.56174059 -1.47421741 77.08135305 -1.51740164 86.60098135 C-1.56681154 97.44011177 -1.62171574 108.27921218 -1.67708123 119.11831355 C-1.79083389 141.41218107 -1.89768753 163.70607724 -2 186 C-3.76324693 182.60379131 -4.8290866 179.34598872 -5.82495117 175.64160156 C-6.08228389 174.69136344 -6.08228389 174.69136344 -6.34481525 173.7219286 C-6.91493658 171.61256831 -7.47893263 169.50161985 -8.04296875 167.390625 C-8.44758472 165.88901392 -8.85258176 164.38750548 -9.25793457 162.88609314 C-10.34730761 158.84653594 -11.4313013 154.80555493 -12.51382065 150.76415634 C-13.63787374 146.56921523 -14.76503919 142.37511039 -15.8918457 138.1809082 C-17.26232903 133.07912122 -18.63231745 127.9772037 -20.00016785 122.87471008 C-22.66625987 112.93368474 -25.35874782 103.00038037 -28.08125877 93.07466507 C-29.29765746 88.63443886 -30.50553276 84.19188583 -31.71450806 79.74963379 C-32.35728975 77.39640322 -33.00400724 75.04424376 -33.65487671 72.6932373 C-43.31687536 37.76601629 -43.31687536 37.76601629 -33.75 19.828125 C-26.93823609 8.81982796 -16.09627312 3.86205748 -3.9609375 0.4453125 C-2 0 -2 0 0 0 Z " fill="#EC1E23" transform="translate(2126,65)"/>
<path d="M0 0 C8.99230189 6.84131938 14.50338259 15.69998302 16.3515625 26.7890625 C-40.0784375 26.7890625 -96.5084375 26.7890625 -154.6484375 26.7890625 C-151.7141452 25.32191635 -149.54276786 24.3774819 -146.46765137 23.55717468 C-145.64122635 23.33446899 -144.81480133 23.11176331 -143.96333313 22.88230896 C-143.06471054 22.6448848 -142.16608795 22.40746063 -141.24023438 22.1628418 C-139.80988106 21.7794313 -139.80988106 21.7794313 -138.35063171 21.38827515 C-135.19059389 20.54239274 -132.02893103 19.70276357 -128.8671875 18.86328125 C-126.65628302 18.2731047 -124.44546895 17.68258935 -122.23474121 17.0917511 C-117.58834946 15.85091194 -112.94120716 14.6129385 -108.29345703 13.37719727 C-102.39126509 11.80787609 -96.4904345 10.23351271 -90.59011078 8.65718365 C-86.01398211 7.43489066 -81.43737758 6.21438774 -76.86061096 4.99448586 C-74.68884566 4.41559478 -72.51716137 3.83639964 -70.3455658 3.25687218 C-59.75388233 0.43202928 -49.15624694 -2.37009225 -38.53320312 -5.07495117 C-37.72193214 -5.28497174 -36.91066116 -5.49499231 -36.07480621 -5.71137714 C-23.12611683 -8.97316896 -11.33431145 -7.30433405 0 0 Z " fill="#EC1E23" transform="translate(2360.6484375,17.2109375)"/>
<path d="M0 0 C84.15 0.495 84.15 0.495 170 1 C167.15955377 2.42022312 165.096902 3.35775996 162.13638306 4.14923096 C161.38016159 4.35366318 160.62394012 4.5580954 159.84480286 4.76872253 C158.61379097 5.09445 158.61379097 5.09445 157.35791016 5.42675781 C156.48558243 5.66125137 155.6132547 5.89574493 154.7144928 6.13734436 C151.82375607 6.91334011 148.93142657 7.68321915 146.0390625 8.453125 C144.01229568 8.99600847 141.98563514 9.53928886 139.95907593 10.08294678 C134.60586405 11.51795981 129.25130363 12.94787519 123.89642334 14.37664795 C117.47165115 16.09183042 111.04843163 17.81281548 104.62500572 19.53303146 C99.60681727 20.87681055 94.58841328 22.21976264 89.56924438 23.55987549 C87.70321695 24.05843509 85.83719914 24.55703072 83.97119141 25.05566406 C83.07119226 25.29590931 82.17119312 25.53615456 81.24392128 25.78367996 C76.46652276 27.06173773 71.6941456 28.35614688 66.92694092 29.67175293 C65.93077444 29.94609035 64.93460796 30.22042778 63.90825462 30.50307846 C62.00869991 31.02716254 60.1098398 31.55377339 58.21181679 32.08337784 C44.8061382 35.7806704 32.68320106 36.37767857 20.0625 29.5625 C18.69592691 28.72832612 17.33978763 27.87654843 16 27 C15.13375 26.443125 14.2675 25.88625 13.375 25.3125 C6.63752511 18.75232708 2.51908798 11.0123893 0 2 C0 1.34 0 0.68 0 0 Z " fill="#EC1E23" transform="translate(2151,354)"/>
<path d="M0 0 C0.97135895 -0.00428513 1.9427179 -0.00857025 2.94351196 -0.01298523 C4.99260684 -0.0187124 7.04172204 -0.01924071 9.09082031 -0.01489258 C12.20934104 -0.01173618 15.32690911 -0.0352 18.4453125 -0.06054688 C20.44270715 -0.06282053 22.44010432 -0.06352305 24.4375 -0.0625 C25.36170746 -0.07170975 26.28591492 -0.08091949 27.23812866 -0.09040833 C33.11121327 -0.04888309 37.52780891 0.74964451 42.8515625 3.30078125 C46.00250562 8.02719593 45.22351676 13.08014424 45.22216797 18.64257812 C45.22653341 20.66232125 45.26283826 22.67986334 45.30078125 24.69921875 C45.30464844 25.97796875 45.30851562 27.25671875 45.3125 28.57421875 C45.32071777 29.74388184 45.32893555 30.91354492 45.33740234 32.11865234 C44.74389995 36.00594388 43.66445032 37.58532508 40.8515625 40.30078125 C37.16848877 42.11108354 34.22487738 42.54625897 30.14331055 42.52783203 C29.02252609 42.52768097 27.90174164 42.52752991 26.74699402 42.52737427 C25.5478688 42.5170517 24.34874359 42.50672913 23.11328125 42.49609375 C21.25942558 42.49184891 21.25942558 42.49184891 19.36811829 42.48751831 C16.09491253 42.47823343 12.82190606 42.46028758 9.54876709 42.43811035 C6.20375402 42.41758942 2.85873224 42.40867393 -0.48632812 42.3984375 C-7.04044224 42.3763992 -13.59442358 42.34293786 -20.1484375 42.30078125 C-20.24740931 37.24712833 -20.31995353 32.19404101 -20.36816406 27.13964844 C-20.38826378 25.42079846 -20.41554839 23.70201673 -20.45019531 21.98339844 C-20.49878784 19.51089636 -20.52142185 17.03929915 -20.5390625 14.56640625 C-20.55970764 13.79959534 -20.58035278 13.03278442 -20.60162354 12.24273682 C-20.60304257 8.85891502 -20.44342794 6.72850866 -18.49902344 3.90917969 C-12.64987201 -0.09312709 -6.83645613 -0.00671237 0 0 Z " fill="#3F140D" transform="translate(2335.1484375,188.69921875)"/>
<path d="M0 0 C0.78608643 -0.01393799 1.57217285 -0.02787598 2.38208008 -0.04223633 C7.883394 0.00379227 7.883394 0.00379227 10.4375 1.71484375 C12.04929056 4.39066793 11.87256203 6.32956578 11.4375 9.375 C9.93359375 11.53125 9.93359375 11.53125 7.4375 13.375 C4.54284392 13.74915895 1.95519397 13.93501487 -0.9375 13.9375 C-7.53866085 13.97761122 -12.62013433 14.43263433 -17.5625 19.375 C-17.87204992 21.45424526 -17.87204992 21.45424526 -17.83374023 23.86889648 C-17.84392685 24.80003769 -17.85411346 25.73117889 -17.86460876 26.6905365 C-17.86674881 27.69887039 -17.86888885 28.70720428 -17.87109375 29.74609375 C-17.89625061 31.86784133 -17.92164868 33.98958605 -17.94726562 36.11132812 C-17.9760464 39.46687099 -18.0000551 42.82236441 -18.01879883 46.17797852 C-18.0403962 49.40927799 -18.07983014 52.6399945 -18.12109375 55.87109375 C-18.12120956 56.87740341 -18.12132538 57.88371307 -18.1214447 58.92051697 C-18.13478348 59.85481033 -18.14812225 60.7891037 -18.16186523 61.75170898 C-18.16693588 62.57396469 -18.17200653 63.3962204 -18.17723083 64.24339294 C-18.65286566 66.87497276 -19.46427114 67.76398109 -21.5625 69.375 C-23.71875 69.7734375 -23.71875 69.7734375 -26.0625 69.75 C-27.22265625 69.76160156 -27.22265625 69.76160156 -28.40625 69.7734375 C-31.12626658 69.27082574 -31.86794544 68.53699162 -33.5625 66.375 C-33.95690918 64.1698761 -33.95690918 64.1698761 -33.98242188 61.5715332 C-34.00628967 60.109049 -34.00628967 60.109049 -34.03063965 58.61701965 C-34.03084106 57.56391098 -34.03104248 56.51080231 -34.03125 55.42578125 C-34.03886353 54.33919724 -34.04647705 53.25261322 -34.05432129 52.13310242 C-34.06513558 49.83070168 -34.06797003 47.52825183 -34.06347656 45.22583008 C-34.06250844 41.71806752 -34.1040301 38.21252235 -34.1484375 34.70507812 C-34.15364773 32.46615038 -34.15633264 30.22721505 -34.15625 27.98828125 C-34.17264526 26.94529373 -34.18904053 25.90230621 -34.20593262 24.82771301 C-34.14258252 18.08281324 -32.97324879 13.57158143 -28.5625 8.375 C-20.8528217 0.82741402 -10.28809003 0.1203105 0 0 Z " fill="#FDFDFC" transform="translate(2275.5625,175.625)"/>
<path d="M0 0 C5.28704982 2.46121285 8.4393499 6.19082981 11.25 11.25 C13.01816534 17.7332729 12.57766909 23.3228213 9.27734375 29.20703125 C6.58124289 32.99146641 3.44924858 35.51691714 -1 37 C-6.81112953 37.47326956 -12.14773588 37.85997977 -17.5 35.375 C-25.7079646 27.57743363 -25.7079646 27.57743363 -26.203125 21.51171875 C-26.36647913 11.66963234 -26.36647913 11.66963234 -23 7 C-15.69341042 -0.17128237 -10.27431489 -0.84254063 0 0 Z " fill="#000000" transform="translate(905,433)"/>
<path d="M0 0 C2.41798065 0.01070226 4.83521601 0.00007084 7.25317383 -0.01269531 C25.510727 -0.02949429 25.510727 -0.02949429 33.61450195 3.69824219 C35.48950195 6.26074219 35.48950195 6.26074219 35.48950195 17.26074219 C14.03950195 17.26074219 -7.41049805 17.26074219 -29.51049805 17.26074219 C-29.51049805 6.26074219 -29.51049805 6.26074219 -27.57299805 3.69824219 C-18.78083993 -0.42868917 -9.49335646 -0.04999033 0 0 Z " fill="#41160F" transform="translate(2180.510498046875,187.7392578125)"/>
</svg>
